<svg width="18" height="19" viewBox="0 0 18 19" fill="none" xmlns="http://www.w3.org/2000/svg">
<g clip-path="url(#clip0_97_6262)">
<path d="M17.9998 9.55527C17.9998 4.55352 13.9701 0.499023 8.99981 0.499023C4.02731 0.500148 -0.00244141 4.55352 -0.00244141 9.5564C-0.00244141 14.0755 3.28931 17.8218 7.59131 18.5013V12.1731H5.30756V9.5564H7.59356V7.55952C7.59356 5.2904 8.93793 4.03715 10.9933 4.03715C11.9788 4.03715 13.0082 4.21377 13.0082 4.21377V6.44127H11.8731C10.7559 6.44127 10.4072 7.1399 10.4072 7.85652V9.55527H12.9024L12.5042 12.172H10.4061V18.5001C14.7081 17.8206 17.9998 14.0744 17.9998 9.55527Z" fill="white"/>
</g>
<defs>
<clipPath id="clip0_97_6262">
<rect width="18" height="18" fill="white" transform="translate(0 0.5)"/>
</clipPath>
</defs>
</svg>
