<svg width="33" height="36" viewBox="0 0 33 36" fill="none" xmlns="http://www.w3.org/2000/svg">
<path fill-rule="evenodd" clip-rule="evenodd" d="M10.7791 2.00473C11.4328 1.27327 12.4348 0.650594 13.9559 0.290527H32.2929L28.8379 6.30217C27.4049 8.79563 24.7483 10.3329 21.8724 10.3329H10.6889C9.96431 8.70332 9.39358 6.5707 9.62899 4.68461C9.7557 3.6693 10.112 2.75125 10.7791 2.00473Z" fill="#484AEE"/>
<path fill-rule="evenodd" clip-rule="evenodd" d="M9.71744 11.9097L9.71758 11.91L9.72938 11.9326L15.8404 22.0207C17.1247 24.1407 17.1325 26.7967 15.8609 28.9242L11.9057 35.5415L2.31513 19.3494C0.87307 15.7488 0.521564 12.8193 0.853345 10.452C1.18566 8.08095 2.21031 6.22168 3.60456 4.77045C5.19197 3.11816 7.26881 1.98709 9.35094 1.26807C8.60681 2.23434 8.22333 3.35048 8.08164 4.48571C7.76932 6.98813 8.61642 9.67937 9.50295 11.4897C9.54101 11.5674 9.59572 11.6744 9.63852 11.7575L9.69432 11.8653L9.71711 11.9091L9.71744 11.9097Z" fill="#484AEE"/>
<path d="M25.6433 17.2954C25.6433 19.5878 23.7849 21.4462 21.4924 21.4462C19.2 21.4462 17.3416 19.5878 17.3416 17.2954C17.3416 15.0029 19.2 13.1445 21.4924 13.1445C23.7849 13.1445 25.6433 15.0029 25.6433 17.2954Z" fill="#484AEE"/>
</svg>
