<svg width="175" height="40" viewBox="0 0 175 40" fill="none" xmlns="http://www.w3.org/2000/svg">
<g clip-path="url(#clip0_174_5870)">
<path d="M54.488 29H52.328V11.864H61.904V13.76H54.488V19.832H61.448V21.728H54.488V29ZM69.5253 15.896C69.7653 15.896 70.0213 15.912 70.2933 15.944C70.5813 15.96 70.8293 15.992 71.0373 16.04L70.7733 17.984C70.5653 17.936 70.3333 17.896 70.0773 17.864C69.8373 17.832 69.6053 17.816 69.3813 17.816C68.8853 17.816 68.4133 17.92 67.9653 18.128C67.5173 18.336 67.1173 18.632 66.7653 19.016C66.4133 19.384 66.1333 19.832 65.9253 20.36C65.7333 20.888 65.6373 21.48 65.6373 22.136V29H63.5253V16.136H65.2533L65.4933 18.488H65.5893C65.8613 18.008 66.1893 17.576 66.5733 17.192C66.9573 16.792 67.3973 16.48 67.8933 16.256C68.3893 16.016 68.9333 15.896 69.5253 15.896ZM74.5914 16.136V29H72.4794V16.136H74.5914ZM73.5594 11.312C73.8794 11.312 74.1594 11.424 74.3994 11.648C74.6554 11.856 74.7834 12.192 74.7834 12.656C74.7834 13.104 74.6554 13.44 74.3994 13.664C74.1594 13.888 73.8794 14 73.5594 14C73.2074 14 72.9114 13.888 72.6714 13.664C72.4314 13.44 72.3114 13.104 72.3114 12.656C72.3114 12.192 72.4314 11.856 72.6714 11.648C72.9114 11.424 73.2074 11.312 73.5594 11.312ZM82.2669 15.896C83.1149 15.896 83.8749 16.056 84.5469 16.376C85.2349 16.696 85.8189 17.184 86.2989 17.84H86.4189L86.7069 16.136H88.3869V29.216C88.3869 30.432 88.1789 31.448 87.7629 32.264C87.3469 33.096 86.7149 33.72 85.8669 34.136C85.0189 34.552 83.9389 34.76 82.6269 34.76C81.6989 34.76 80.8429 34.688 80.0589 34.544C79.2909 34.416 78.6029 34.216 77.9949 33.944V32C78.4109 32.208 78.8669 32.384 79.3629 32.528C79.8589 32.688 80.3949 32.808 80.9709 32.888C81.5469 32.968 82.1389 33.008 82.7469 33.008C83.8509 33.008 84.7149 32.68 85.3389 32.024C85.9789 31.384 86.2989 30.504 86.2989 29.384V28.88C86.2989 28.688 86.3069 28.416 86.3229 28.064C86.3389 27.696 86.3549 27.44 86.3709 27.296H86.2749C85.8269 27.952 85.2669 28.44 84.5949 28.76C83.9389 29.08 83.1709 29.24 82.2909 29.24C80.6269 29.24 79.3229 28.656 78.3789 27.488C77.4509 26.32 76.9869 24.688 76.9869 22.592C76.9869 21.216 77.1949 20.032 77.6109 19.04C78.0429 18.032 78.6509 17.256 79.4349 16.712C80.2189 16.168 81.1629 15.896 82.2669 15.896ZM82.5549 17.672C81.8349 17.672 81.2189 17.864 80.7069 18.248C80.2109 18.632 79.8269 19.192 79.5549 19.928C79.2989 20.664 79.1709 21.56 79.1709 22.616C79.1709 24.2 79.4589 25.416 80.0349 26.264C80.6269 27.096 81.4829 27.512 82.6029 27.512C83.2589 27.512 83.8189 27.432 84.2829 27.272C84.7469 27.096 85.1309 26.832 85.4349 26.48C85.7389 26.112 85.9629 25.648 86.1069 25.088C86.2509 24.528 86.3229 23.864 86.3229 23.096V22.592C86.3229 21.424 86.1869 20.48 85.9149 19.76C85.6589 19.04 85.2509 18.512 84.6909 18.176C84.1309 17.84 83.4189 17.672 82.5549 17.672ZM96.0725 15.896C96.9205 15.896 97.6805 16.056 98.3525 16.376C99.0405 16.696 99.6245 17.184 100.105 17.84H100.225L100.513 16.136H102.193V29.216C102.193 30.432 101.985 31.448 101.569 32.264C101.153 33.096 100.521 33.72 99.6725 34.136C98.8245 34.552 97.7445 34.76 96.4325 34.76C95.5045 34.76 94.6485 34.688 93.8645 34.544C93.0965 34.416 92.4085 34.216 91.8005 33.944V32C92.2165 32.208 92.6725 32.384 93.1685 32.528C93.6645 32.688 94.2005 32.808 94.7765 32.888C95.3525 32.968 95.9445 33.008 96.5525 33.008C97.6565 33.008 98.5205 32.68 99.1445 32.024C99.7845 31.384 100.105 30.504 100.105 29.384V28.88C100.105 28.688 100.113 28.416 100.129 28.064C100.145 27.696 100.161 27.44 100.177 27.296H100.081C99.6325 27.952 99.0725 28.44 98.4005 28.76C97.7445 29.08 96.9765 29.24 96.0965 29.24C94.4325 29.24 93.1285 28.656 92.1845 27.488C91.2565 26.32 90.7925 24.688 90.7925 22.592C90.7925 21.216 91.0005 20.032 91.4165 19.04C91.8485 18.032 92.4565 17.256 93.2405 16.712C94.0245 16.168 94.9685 15.896 96.0725 15.896ZM96.3605 17.672C95.6405 17.672 95.0245 17.864 94.5125 18.248C94.0165 18.632 93.6325 19.192 93.3605 19.928C93.1045 20.664 92.9765 21.56 92.9765 22.616C92.9765 24.2 93.2645 25.416 93.8405 26.264C94.4325 27.096 95.2885 27.512 96.4085 27.512C97.0645 27.512 97.6245 27.432 98.0885 27.272C98.5525 27.096 98.9365 26.832 99.2405 26.48C99.5445 26.112 99.7685 25.648 99.9125 25.088C100.057 24.528 100.129 23.864 100.129 23.096V22.592C100.129 21.424 99.9925 20.48 99.7205 19.76C99.4645 19.04 99.0565 18.512 98.4965 18.176C97.9365 17.84 97.2245 17.672 96.3605 17.672ZM118.441 29L112.801 13.976H112.705C112.737 14.296 112.761 14.704 112.777 15.2C112.809 15.696 112.833 16.24 112.849 16.832C112.865 17.408 112.873 18 112.873 18.608V29H110.881V11.864H114.073L119.353 25.904H119.449L124.825 11.864H127.993V29H125.857V18.464C125.857 17.904 125.865 17.352 125.881 16.808C125.897 16.248 125.921 15.728 125.953 15.248C125.985 14.752 126.009 14.336 126.025 14H125.929L120.217 29H118.441ZM136.374 15.896C137.478 15.896 138.422 16.136 139.206 16.616C140.006 17.096 140.614 17.776 141.03 18.656C141.462 19.52 141.678 20.536 141.678 21.704V22.976H132.87C132.902 24.432 133.27 25.544 133.974 26.312C134.694 27.064 135.694 27.44 136.974 27.44C137.79 27.44 138.51 27.368 139.134 27.224C139.774 27.064 140.43 26.84 141.102 26.552V28.4C140.446 28.688 139.798 28.896 139.158 29.024C138.518 29.168 137.758 29.24 136.878 29.24C135.662 29.24 134.582 28.992 133.638 28.496C132.71 28 131.982 27.264 131.454 26.288C130.942 25.296 130.686 24.088 130.686 22.664C130.686 21.256 130.918 20.048 131.382 19.04C131.862 18.032 132.526 17.256 133.374 16.712C134.238 16.168 135.238 15.896 136.374 15.896ZM136.35 17.624C135.342 17.624 134.542 17.952 133.95 18.608C133.374 19.248 133.03 20.144 132.918 21.296H139.47C139.47 20.56 139.358 19.92 139.134 19.376C138.91 18.832 138.566 18.408 138.102 18.104C137.654 17.784 137.07 17.624 136.35 17.624ZM148.553 29.24C146.953 29.24 145.673 28.688 144.713 27.584C143.753 26.464 143.273 24.8 143.273 22.592C143.273 20.384 143.753 18.72 144.713 17.6C145.689 16.464 146.977 15.896 148.577 15.896C149.249 15.896 149.833 15.984 150.329 16.16C150.825 16.32 151.257 16.544 151.625 16.832C151.993 17.12 152.305 17.44 152.561 17.792H152.705C152.689 17.584 152.657 17.28 152.609 16.88C152.577 16.464 152.561 16.136 152.561 15.896V10.76H154.673V29H152.969L152.657 27.272H152.561C152.305 27.64 151.993 27.976 151.625 28.28C151.257 28.568 150.817 28.8 150.305 28.976C149.809 29.152 149.225 29.24 148.553 29.24ZM148.889 27.488C150.249 27.488 151.201 27.12 151.745 26.384C152.305 25.632 152.585 24.504 152.585 23V22.616C152.585 21.016 152.321 19.792 151.793 18.944C151.265 18.08 150.289 17.648 148.865 17.648C147.729 17.648 146.873 18.104 146.297 19.016C145.737 19.912 145.457 21.12 145.457 22.64C145.457 24.176 145.737 25.368 146.297 26.216C146.873 27.064 147.737 27.488 148.889 27.488ZM159.91 16.136V29H157.798V16.136H159.91ZM158.878 11.312C159.198 11.312 159.478 11.424 159.718 11.648C159.974 11.856 160.102 12.192 160.102 12.656C160.102 13.104 159.974 13.44 159.718 13.664C159.478 13.888 159.198 14 158.878 14C158.526 14 158.23 13.888 157.99 13.664C157.75 13.44 157.63 13.104 157.63 12.656C157.63 12.192 157.75 11.856 157.99 11.648C158.23 11.424 158.526 11.312 158.878 11.312ZM167.898 15.92C169.466 15.92 170.626 16.264 171.378 16.952C172.13 17.64 172.506 18.736 172.506 20.24V29H170.97L170.562 27.176H170.466C170.098 27.64 169.714 28.032 169.314 28.352C168.93 28.656 168.482 28.88 167.97 29.024C167.474 29.168 166.866 29.24 166.146 29.24C165.378 29.24 164.682 29.104 164.058 28.832C163.45 28.56 162.97 28.144 162.618 27.584C162.266 27.008 162.09 26.288 162.09 25.424C162.09 24.144 162.594 23.16 163.602 22.472C164.61 21.768 166.162 21.384 168.258 21.32L170.442 21.248V20.48C170.442 19.408 170.21 18.664 169.746 18.248C169.282 17.832 168.626 17.624 167.778 17.624C167.106 17.624 166.466 17.728 165.858 17.936C165.25 18.128 164.682 18.352 164.154 18.608L163.506 17.024C164.066 16.72 164.73 16.464 165.498 16.256C166.266 16.032 167.066 15.92 167.898 15.92ZM168.522 22.784C166.922 22.848 165.81 23.104 165.186 23.552C164.578 24 164.274 24.632 164.274 25.448C164.274 26.168 164.49 26.696 164.922 27.032C165.37 27.368 165.938 27.536 166.626 27.536C167.714 27.536 168.618 27.24 169.338 26.648C170.058 26.04 170.418 25.112 170.418 23.864V22.712L168.522 22.784Z" fill="white"/>
<path d="M14.8637 0.486816C8.06533 2.0319 9.47161 8.65328 11.1771 12.136H22.8721C26.0356 12.136 28.9578 10.445 30.5341 7.70216L34.6809 0.486816H14.8637Z" fill="#484AEE"/>
<path fill-rule="evenodd" clip-rule="evenodd" d="M14.7737 -0.316406H36.0694L31.2308 8.10265C29.5112 11.0948 26.3233 12.9395 22.8722 12.9395H10.6761L10.4557 12.4895C9.56919 10.6791 8.72208 7.98787 9.03441 5.48546C9.19273 4.21695 9.65295 2.97228 10.5809 1.93391C11.51 0.894189 12.8562 0.119381 14.6858 -0.296428L14.7737 -0.316406ZM14.9558 1.29037C13.4346 1.65044 12.4326 2.27311 11.779 3.00457C11.1118 3.7511 10.7555 4.66915 10.6288 5.68446C10.3934 7.57055 10.9641 9.70316 11.6887 11.3328H22.8722C25.7482 11.3328 28.4047 9.79548 29.8377 7.30202L33.2927 1.29037H14.9558Z" fill="black"/>
<path d="M17.5502 30.336L12.9023 38.1123L2.59227 20.7055C-3.40638 5.81597 8.30519 1.02241 14.9108 0.486816C8.11245 2.0319 9.51873 8.65328 11.2242 12.136C11.2923 12.2751 11.4294 12.5377 11.4294 12.5377L17.5273 22.604C18.9656 24.9784 18.9744 27.9531 17.5502 30.336Z" fill="#484AEE"/>
<path fill-rule="evenodd" clip-rule="evenodd" d="M3.4458 4.65682C6.6357 1.33654 11.4347 -0.0373617 14.8461 -0.313965L15.0891 1.27021C13.5194 1.62694 12.4921 2.25921 11.8261 3.00439C11.159 3.75091 10.8027 4.66896 10.676 5.68427C10.4182 7.74949 11.127 10.1103 11.9459 11.7826C11.976 11.844 12.0239 11.9379 12.0667 12.0209C12.0876 12.0615 12.1064 12.0978 12.1201 12.124L12.1302 12.1436L18.2147 22.1877C19.8071 24.8165 19.8168 28.11 18.24 30.7482L12.8994 39.6834L1.87011 21.0623L1.84729 21.0057C0.308959 17.1873 -0.119677 13.9522 0.262039 11.2286C0.644948 8.49649 1.83629 6.33211 3.4458 4.65682ZM10.7175 12.9095L10.7174 12.9093L10.717 12.9086L10.6942 12.8649C10.68 12.8375 10.6603 12.7995 10.6384 12.757C10.5956 12.674 10.5409 12.567 10.5029 12.4893C9.61635 10.6789 8.76924 7.98769 9.08156 5.48527C9.22325 4.35004 9.60673 3.2339 10.3509 2.26763C8.26873 2.98665 6.19189 4.11772 4.60449 5.77001C3.21024 7.22124 2.18558 9.08051 1.85327 11.4516C1.52149 13.8189 1.87299 16.7483 3.31505 20.3489L12.9057 36.5411L16.8608 29.9238C18.1325 27.7963 18.1246 25.1402 16.8404 23.0202L10.7293 12.9321L10.7175 12.9095Z" fill="black"/>
<path d="M26.643 18.2954C26.643 20.5878 24.7846 22.4462 22.4922 22.4462C20.1997 22.4462 18.3413 20.5878 18.3413 18.2954C18.3413 16.0029 20.1997 14.1445 22.4922 14.1445C24.7846 14.1445 26.643 16.0029 26.643 18.2954Z" fill="#484AEE"/>
</g>
<defs>
<clipPath id="clip0_174_5870">
<rect width="175" height="40" fill="white"/>
</clipPath>
</defs>
</svg>
