<svg width="116" height="78" viewBox="0 0 116 78" fill="none" xmlns="http://www.w3.org/2000/svg">
<path d="M90.9754 7.54639L75.0479 45.4379H68.129L73.7013 32.6217L63.3926 7.54639H70.683L77.3233 25.517L84.0565 7.54639H90.9754Z" fill="#0865FE"/>
<path d="M59.9502 7.54639V33.2718H53.4027V30.0213C52.5669 31.1357 51.4679 32.018 50.1058 32.6681C48.7747 33.2872 47.3197 33.5968 45.7409 33.5968C43.7286 33.5968 41.9486 33.1789 40.4007 32.343C38.8529 31.4762 37.6301 30.2225 36.7323 28.5818C35.8655 26.9101 35.4321 24.9288 35.4321 22.638V7.54639H41.9331V21.7093C41.9331 23.7524 42.4439 25.3313 43.4655 26.4457C44.4871 27.5292 45.8802 28.071 47.6447 28.071C49.4402 28.071 50.8488 27.5292 51.8704 26.4457C52.892 25.3313 53.4027 23.7524 53.4027 21.7093V7.54639H59.9502Z" fill="#0865FE"/>
<path d="M104.378 33.2716L102.765 31.6795C101.392 32.9107 99.7153 33.5263 97.7341 33.5263C96.6444 33.5263 95.6821 33.3424 94.8471 32.9744C94.0263 32.5923 93.3895 32.0616 92.9366 31.3823C92.4838 30.6889 92.2573 29.8893 92.2573 28.9836C92.2573 28.0071 92.5333 27.1297 93.0852 26.3514C93.6371 25.573 94.4509 24.9433 95.5264 24.4621C95.1443 23.9951 94.8683 23.5493 94.6985 23.1248C94.5287 22.686 94.4438 22.219 94.4438 21.7237C94.4438 21.0444 94.6207 20.4359 94.9745 19.8981C95.3283 19.3462 95.8307 18.9146 96.4816 18.6032C97.1468 18.2919 97.9181 18.1362 98.7955 18.1362C99.687 18.1362 100.451 18.3061 101.088 18.6457C101.725 18.9853 102.199 19.4382 102.51 20.0043C102.822 20.5703 102.956 21.2001 102.914 21.8935H100.027C100.041 21.4265 99.9276 21.0727 99.687 20.8322C99.4465 20.5774 99.121 20.4501 98.7106 20.4501C98.3143 20.4501 97.9817 20.5703 97.7129 20.8109C97.4581 21.0374 97.3308 21.3345 97.3308 21.7025C97.3308 22.0563 97.4369 22.4101 97.6492 22.7639C97.8614 23.1035 98.2082 23.5281 98.6893 24.0375L102.425 27.7312C102.454 27.7029 102.475 27.6746 102.489 27.6463C102.503 27.618 102.517 27.5897 102.532 27.5613L103.742 25.5447H106.841L105.355 28.1557C105.072 28.7076 104.768 29.2313 104.442 29.7266L108.03 33.2716H104.378ZM97.819 31.0639C98.9794 31.0639 100.005 30.6535 100.897 29.8327L97.2458 26.224C95.8731 26.8325 95.1868 27.6958 95.1868 28.8138C95.1868 29.4506 95.4273 29.9884 95.9085 30.4271C96.3897 30.8516 97.0265 31.0639 97.819 31.0639Z" fill="#0865FE"/>
<path d="M88.7534 64.1261C88.7534 61.5257 89.2642 59.2194 90.2858 57.2072C91.3383 55.195 92.7624 53.6471 94.5579 52.5636C96.3534 51.4801 98.3501 50.9384 100.548 50.9384C102.22 50.9384 103.814 51.3098 105.331 52.0528C106.848 52.7648 108.055 53.7245 108.953 54.9318V42.7192H115.547V77.0816H108.953V73.2739C108.148 74.5432 107.018 75.5648 105.563 76.3387C104.108 77.1126 102.421 77.4996 100.502 77.4996C98.3346 77.4996 96.3534 76.9423 94.5579 75.8279C92.7624 74.7134 91.3383 73.1501 90.2858 71.1379C89.2642 69.0947 88.7534 66.7574 88.7534 64.1261ZM108.999 64.219C108.999 62.6401 108.69 61.2935 108.071 60.1791C107.452 59.0336 106.616 58.1668 105.563 57.5787C104.511 56.9595 103.381 56.6499 102.173 56.6499C100.966 56.6499 99.8515 56.944 98.83 57.5322C97.8084 58.1204 96.9725 58.9872 96.3224 60.1326C95.7033 61.2471 95.3937 62.5782 95.3937 64.1261C95.3937 65.6739 95.7033 67.0361 96.3224 68.2124C96.9725 69.3578 97.8084 70.2401 98.83 70.8593C99.8825 71.4784 100.997 71.788 102.173 71.788C103.381 71.788 104.511 71.4939 105.563 70.9057C106.616 70.2866 107.452 69.4198 108.071 68.3053C108.69 67.1599 108.999 65.7978 108.999 64.219Z" fill="#0865FE"/>
<path d="M57.2827 64.1267C57.2827 61.5263 57.7935 59.22 58.8151 57.2078C59.8676 55.1956 61.2762 53.6477 63.0407 52.5642C64.8363 51.4807 66.833 50.939 69.0309 50.939C70.9503 50.939 72.622 51.3259 74.046 52.0999C75.501 52.8738 76.6619 53.8489 77.5287 55.0253V51.3569H84.0761V77.0823H77.5287V73.321C76.6928 74.5283 75.5319 75.5344 74.046 76.3393C72.591 77.1132 70.9038 77.5002 68.9845 77.5002C66.8175 77.5002 64.8363 76.943 63.0407 75.8285C61.2762 74.714 59.8676 73.1507 58.8151 71.1385C57.7935 69.0953 57.2827 66.7581 57.2827 64.1267ZM77.5287 64.2196C77.5287 62.6408 77.2191 61.2941 76.6 60.1797C75.9808 59.0343 75.145 58.1675 74.0924 57.5793C73.0399 56.9601 71.91 56.6506 70.7026 56.6506C69.4953 56.6506 68.3808 56.9446 67.3593 57.5328C66.3377 58.121 65.5018 58.9878 64.8517 60.1332C64.2326 61.2477 63.923 62.5788 63.923 64.1267C63.923 65.6746 64.2326 67.0367 64.8517 68.213C65.5018 69.3585 66.3377 70.2407 67.3593 70.8599C68.4118 71.479 69.5263 71.7886 70.7026 71.7886C71.91 71.7886 73.0399 71.4945 74.0924 70.9063C75.145 70.2872 75.9808 69.4204 76.6 68.3059C77.2191 67.1605 77.5287 65.7984 77.5287 64.2196Z" fill="#0865FE"/>
<path d="M54.2091 63.6623C54.2091 64.5911 54.1472 65.4269 54.0234 66.1699H35.2169C35.3717 68.0273 36.0218 69.4823 37.1672 70.5348C38.3126 71.5874 39.7212 72.1136 41.3929 72.1136C43.8075 72.1136 45.5256 71.0766 46.5472 69.0024H53.559C52.816 71.479 51.392 73.5222 49.2869 75.132C47.1818 76.7108 44.5969 77.5002 41.5322 77.5002C39.0556 77.5002 36.8267 76.9584 34.8454 75.8749C32.8951 74.7605 31.3628 73.1971 30.2483 71.1849C29.1648 69.1727 28.623 66.8509 28.623 64.2196C28.623 61.5573 29.1648 59.22 30.2483 57.2078C31.3318 55.1956 32.8487 53.6477 34.799 52.5642C36.7493 51.4807 38.9937 50.939 41.5322 50.939C43.9778 50.939 46.1603 51.4652 48.0796 52.5178C50.0299 53.5703 51.5313 55.0717 52.5839 57.022C53.6674 58.9414 54.2091 61.1548 54.2091 63.6623ZM47.4759 61.8049C47.445 60.1332 46.8413 58.8021 45.6649 57.8114C44.4886 56.7899 43.0491 56.2791 41.3464 56.2791C39.7367 56.2791 38.3745 56.7744 37.2601 57.765C36.1766 58.7247 35.511 60.0713 35.2633 61.8049H47.4759Z" fill="#0865FE"/>
<path d="M17.2637 77.082L10.1126 64.4515H7.04787V77.082H0.546875V44.6699H12.713C15.2206 44.6699 17.3566 45.1188 19.1211 46.0166C20.8857 46.8834 22.2014 48.0752 23.0682 49.5921C23.9659 51.078 24.4148 52.7497 24.4148 54.6072C24.4148 56.7432 23.7957 58.678 22.5574 60.4116C21.3191 62.1143 19.4772 63.2906 17.0315 63.9407L24.7863 77.082H17.2637ZM7.04787 59.5758H12.4808C14.2454 59.5758 15.5611 59.1579 16.4279 58.322C17.2947 57.4552 17.7281 56.2634 17.7281 54.7465C17.7281 53.2605 17.2947 52.1151 16.4279 51.3102C15.5611 50.4744 14.2454 50.0565 12.4808 50.0565H7.04787V59.5758Z" fill="#0865FE"/>
<path d="M26.1913 16.5469C28.0177 16.8875 29.5192 17.8007 30.6955 19.2866C31.8719 20.7726 32.4601 22.4752 32.4601 24.3946C32.4601 26.1282 32.0267 27.6605 31.1599 28.9917C30.324 30.2919 29.1012 31.3135 27.4915 32.0564C25.8817 32.7994 23.9778 33.1709 21.7799 33.1709H7.80273V0.758789H21.1762C23.3742 0.758789 25.2626 1.1148 26.8414 1.82681C28.4511 2.53882 29.6585 3.52945 30.4634 4.79869C31.2992 6.06793 31.7171 7.50744 31.7171 9.11721C31.7171 11.0056 31.2063 12.5844 30.1847 13.8537C29.1941 15.1229 27.863 16.0206 26.1913 16.5469ZM14.3037 14.1323H20.2475C21.7954 14.1323 22.9872 13.7917 23.823 13.1107C24.6589 12.3987 25.0768 11.3926 25.0768 10.0924C25.0768 8.79216 24.6589 7.78605 23.823 7.07404C22.9872 6.36203 21.7954 6.00602 20.2475 6.00602H14.3037V14.1323ZM20.8512 27.8772C22.43 27.8772 23.6528 27.5057 24.5196 26.7628C25.4173 26.0198 25.8662 24.9673 25.8662 23.6051C25.8662 22.2121 25.4019 21.1286 24.4731 20.3546C23.5444 19.5498 22.2907 19.1473 20.7119 19.1473H14.3037V27.8772H20.8512Z" fill="#0865FE"/>
<path d="M4.59886 33.0052H7.74985C7.93303 33.0052 8.08153 32.8567 8.08153 32.6735V27.2007C7.91569 28.4169 8.01519 31.5126 5.09638 31.5126C2.17756 31.5126 1.94539 28.9144 1.94539 27.3665V1.32938C1.94539 0.963015 1.64839 0.666016 1.28202 0.666016C0.915652 0.666016 0.618652 0.963015 0.618652 1.32938V29.025C0.618652 31.2232 2.40065 33.0052 4.59886 33.0052Z" fill="#0865FE"/>
<path fill-rule="evenodd" clip-rule="evenodd" d="M1.28185 0.832172C1.00707 0.832172 0.78432 1.05492 0.78432 1.3297V29.0253C0.78432 31.1319 2.49207 32.8396 4.59868 32.8396H7.74967C7.84127 32.8396 7.91552 32.7654 7.91552 32.6738V29.4527C7.87538 29.595 7.82918 29.7359 7.77568 29.8732C7.58801 30.355 7.30633 30.8088 6.87153 31.1418C6.43486 31.4763 5.85698 31.6787 5.09621 31.6787C4.3413 31.6787 3.74804 31.5105 3.28515 31.2237C2.82227 30.937 2.50048 30.5383 2.27792 30.0947C1.83619 29.2141 1.77937 28.1431 1.77937 27.3668V1.3297C1.77937 1.05492 1.55662 0.832172 1.28185 0.832172ZM0.452637 1.3297C0.452637 0.871738 0.823886 0.500488 1.28185 0.500488C1.7398 0.500488 2.11105 0.871738 2.11105 1.3297V27.3668C2.11105 28.1385 2.17032 29.1405 2.57439 29.946C2.77473 30.3453 3.05826 30.693 3.45983 30.9418C3.86139 31.1905 4.3917 31.347 5.09621 31.347C5.79484 31.347 6.29907 31.1625 6.66985 30.8785C7.04249 30.5931 7.29358 30.197 7.46662 29.7528C7.73297 29.0691 7.80441 28.3083 7.86128 27.7027C7.8794 27.5097 7.89604 27.3325 7.91704 27.1786L8.2472 27.201V32.6738C8.2472 32.9486 8.02445 33.1713 7.74967 33.1713H4.59868C2.30889 33.1713 0.452637 31.3151 0.452637 29.0253V1.3297Z" fill="#0865FE"/>
<path fill-rule="evenodd" clip-rule="evenodd" d="M3.9352 0.997559C4.11838 0.997559 4.26688 1.14606 4.26688 1.32924V27.8639C4.26688 28.0471 4.11838 28.1956 3.9352 28.1956C3.75202 28.1956 3.60352 28.0471 3.60352 27.8639V1.32924C3.60352 1.14606 3.75202 0.997559 3.9352 0.997559Z" fill="#0865FE"/>
<path fill-rule="evenodd" clip-rule="evenodd" d="M5.92543 0.997559C6.10862 0.997559 6.25712 1.14606 6.25712 1.32924V27.8639C6.25712 28.0471 6.10862 28.1956 5.92543 28.1956C5.74225 28.1956 5.59375 28.0471 5.59375 27.8639V1.32924C5.59375 1.14606 5.74225 0.997559 5.92543 0.997559Z" fill="#0865FE"/>
</svg>
