<svg width="176" height="175" viewBox="0 0 176 175" fill="none" xmlns="http://www.w3.org/2000/svg">
<path fill-rule="evenodd" clip-rule="evenodd" d="M18.2 53.5C20.2 54.7 24.5 57.4 27.8 59.4C31.1 61.5 44.6 69.8 57.8 77.9C71 86 82.4 92.9 83.1 93C84 93.3 84.3 99.9 84.4 121.1C84.5 136.4 84.8 153.5 85.2 159.2C85.6 165.7 85.4 169.4 84.8 169.4C84.3 169.4 80.2 168.8 75.8 168C71.4 167.2 65.3 165.7 62.3 164.6C59.3 163.6 54.8 161.7 52.3 160.4C49.8 159.1 45.4 156.6 42.6 154.7C38.6 152.2 34.5732 150 35.5 149C39.3 144.9 37.7 141.3 38.3 139.6C38.9 137.9 42.5 139.8 44.6 137.6C47.4 134.4 48.3 132.5 48.3 129.9C48.3 127.3 47.4 125.4 41.4 118.9L43.4 114.9C44.9 111.7 45.1 110.3 44.3 107.9C43.7 106 41.3 103.4 37.6 100.8C34.4 98.5 27.1 93.8 21.3 90.4C15.5 86.9 10 83.4 9 82.5C7.8 81.4 7.2 79.5 7.2 76.4C7.3 73.9 8.4 67.8 9.9 62.9C11.3 57.9 12.9 53.3 13.5 52.6C14.3 51.7 15.3 51.8 18.2 53.5ZM171.5 88.5C172 88.4 172.6 89.1 173 90C173.4 90.8 173.3 93.2 172.9 95.2C172.1 98.6 171.1 99.4 159.7 106.1C152.9 110.1 146.4 113.5 145.2 113.6C144 113.8 142.6 113.2 142 112.4C141.5 111.6 141.3 110.1 141.6 109.1C142 108.2 148.7 103.2 156.5 98C164.4 92.8 171.1 88.5 171.5 88.5ZM7.5 89.4C8.2 89.4 12.2 91.6 16.3 94.3C20.4 96.9 27.1 101.2 31 103.8C35.5 106.6 38.3 109.1 38.3 110.1C38.3 111.1 37.8 112.5 37.1 113.1C36.4 113.8 35.2 114.4 34.3 114.4C33.5 114.4 28.5 111.7 23.3 108.5C18.1 105.2 12.6 102 11 101.2C9.5 100.5 7.8 98.6 7.3 96.9C6.7 95.2 6.3 92.9 6.3 91.6C6.3 90.4 6.9 89.4 7.5 89.4ZM72 4.5C73.3 4.4 74.3 4.6 74.3 4.9C74.3 5.2 71 6.9 67 8.8C61.6 11.4 58 14 52.7 19.6C48.6 23.8 44.3 29.5 42.6 32.9C40.9 36.2 39 41.6 38.3 44.9C37.6 48.2 36.7 51.2 36.4 51.6C36.1 52 32.4 50.3 28.3 47.9C24.2 45.4 20.4 43.3 19.9 43.2C19.4 43 19.4 41.8 19.8 40.4C20.3 39 24.1 34.4 28.2 30C32.4 25.7 38.5 20.2 41.8 17.9C45.1 15.6 49.8 12.6 52.3 11.4C54.8 10.1 59.7 8 63.3 6.8C66.9 5.5 70.8 4.5 72 4.5ZM112.7 5.8C114.4 6.2 118.9 7.8 122.8 9.4C126.6 11 131.8 13.7 134.3 15.3C136.8 16.9 141.7 20.9 145.2 24.1C148.8 27.3 153.6 32.6 156 35.9C158.4 39.2 160.4 42.2 160.3 42.6C160.3 43.1 156.6 45.4 152 47.9C147.5 50.4 143.7 52.3 143.7 52.2C143.6 52 142.8 49 141.9 45.4C141 41.8 138.9 36 137.1 32.4C135 28 131.7 23.6 126.9 18.9C122.8 14.8 117.6 10.8 114.6 9.4C111.7 8 109.4 6.5 109.5 6C109.6 5.5 111 5.5 112.7 5.8ZM166.1 53.1C166.8 54.1 168.3 58 169.5 61.9C170.7 65.7 171.7 71.6 171.8 80.9L164.8 85.6C160.9 88.2 153.4 93 148 96.4C142.7 99.7 137.6 103.4 136.8 104.6C136 105.9 135.3 108.4 135.3 110.1C135.3 111.9 136.1 114.6 137 116C138.7 118.6 138.7 118.7 136.8 120.3C135.7 121.2 134 123 133 124.4C132.1 125.8 131.3 128.5 131.3 130.4C131.4 133.2 132.2 134.6 135.3 137.4C138.3 138.4 140.358 138.1 141.138 139.6C142.438 142.1 138.3 144.4 142.6 149.9L138.7 153.2C136.5 155 131.2 158.2 126.8 160.4C122.4 162.6 116.1 165.1 112.8 165.9C109.5 166.7 104 167.7 94.3 168.9V94.4L99 91.7C101.7 90.3 109.4 85.6 116.3 81.3C123.2 77.1 136.9 68.6 146.8 62.5C163.4 52.2 164.9 51.4 166.1 53.1ZM22.2 115.1C28.2 118.9 35.2 123.4 37.7 125.1C41.1 127.6 42.2 129 42 130.6C41.9 132.2 41 133 39.3 133.2C37.7 133.4 32.9 131.2 25.8 127.1C16.5 121.7 14.4 120.1 12.4 116.3C10.9 113.7 10.2 111.2 10.6 110.1C11.2 108.6 12.7 109.3 22.2 115.1ZM168.5 108.4C169 108.4 169.3 109.1 169.3 109.9C169.3 110.7 168.8 112.6 168.2 114.1C167.6 115.7 166.2 117.9 165 119.2C163.8 120.5 158.3 124.2 152.8 127.5C147.3 130.8 141.9 133.4 140.9 133.2C139.9 133 138.5 132.2 137.9 131.2C137.1 130 137.2 129.2 138.3 127.8C139.1 126.8 144.3 123.1 149.8 119.5C155.3 115.9 161.6 112 163.8 110.7C166 109.5 168.1 108.4 168.5 108.4ZM22.1 131.4C22.5 131.5 25.3 133.4 28.3 135.7C31.3 138.1 33.9 140.9 34.1 142C34.3 143 33.9 144.3 33.3 144.9C32.5 145.6 30.4 144 26.2 139.6C23 136.2 20.5 133 20.8 132.4C21.2 131.8 21.7 131.4 22.1 131.4ZM157 132.4C157.7 132.4 158.3 132.7 158.3 133.1C158.3 133.6 156.1 136.5 153.3 139.6C149.1 144.5 148.1 145.2 146.8 144.1C145.9 143.5 145.1 142.4 145 141.7C145 141 147.3 138.7 150.3 136.5C153.3 134.2 156.4 132.4 157 132.4Z" fill="#0072C3"/>
</svg>
